<?xml version="1.0" standalone="no"?>
<!DOCTYPE svg PUBLIC "-//W3C//DTD SVG 20010904//EN"
 "http://www.w3.org/TR/2001/REC-SVG-20010904/DTD/svg10.dtd">
<svg version="1.0" xmlns="http://www.w3.org/2000/svg"
 width="179.000000pt" height="180.000000pt" viewBox="0 0 179.000000 180.000000"
 preserveAspectRatio="xMidYMid meet">

<g transform="translate(0.000000,180.000000) scale(0.100000,-0.100000)"
fill="#000000" stroke="none">
<path d="M0 900 l0 -900 895 0 895 0 0 900 0 900 -895 0 -895 0 0 -900z m1055
813 c39 -8 98 -28 133 -44 35 -16 67 -29 72 -29 5 0 10 -3 12 -7 2 -5 29 -26
61 -47 123 -83 236 -230 297 -386 68 -177 67 -431 -4 -609 -79 -198 -239 -369
-422 -451 -88 -40 -256 -80 -334 -80 -78 0 -246 40 -333 79 -172 77 -316 222
-402 402 -41 88 -85 269 -85 355 0 65 29 220 53 290 58 160 197 342 317 411
25 15 47 29 50 33 3 4 37 21 77 39 154 67 330 83 508 44z"/>
<path d="M705 1675 l-50 -13 60 6 c78 9 234 9 310 0 l60 -7 -50 13 c-64 18
-265 18 -330 1z"/>
<path d="M620 1650 c-8 -5 -10 -10 -5 -10 6 0 17 5 25 10 8 5 11 10 5 10 -5 0
-17 -5 -25 -10z"/>
<path d="M1090 1656 c0 -2 7 -7 16 -10 8 -3 12 -2 9 4 -6 10 -25 14 -25 6z"/>
<path d="M561 1629 c-13 -5 -21 -12 -18 -15 3 -3 18 1 34 10 31 17 21 20 -16
5z"/>
<path d="M1180 1615 c33 -19 49 -19 24 0 -10 8 -26 14 -34 14 -9 0 -4 -6 10
-14z"/>
<path d="M510 1600 c-9 -6 -10 -10 -3 -10 6 0 15 5 18 10 8 12 4 12 -15 0z"/>
<path d="M1237 1589 c7 -7 15 -10 18 -7 3 3 -2 9 -12 12 -14 6 -15 5 -6 -5z"/>
<path d="M1270 1576 c0 -2 8 -10 18 -17 15 -13 16 -12 3 4 -13 16 -21 21 -21
13z"/>
<path d="M424 1548 l-19 -21 30 18 c41 26 40 25 23 25 -8 0 -23 -10 -34 -22z"/>
<path d="M838 1553 c6 -2 18 -2 25 0 6 3 1 5 -13 5 -14 0 -19 -2 -12 -5z"/>
<path d="M783 1543 c9 -2 23 -2 30 0 6 3 -1 5 -18 5 -16 0 -22 -2 -12 -5z"/>
<path d="M938 1543 c6 -2 18 -2 25 0 6 3 1 5 -13 5 -14 0 -19 -2 -12 -5z"/>
<path d="M738 1533 c7 -3 16 -2 19 1 4 3 -2 6 -13 5 -11 0 -14 -3 -6 -6z"/>
<path d="M360 1496 c-64 -61 -86 -92 -29 -41 31 28 59 56 62 63 9 17 6 16 -33
-22z"/>
<path d="M671 1519 c-13 -5 -21 -12 -18 -15 3 -3 18 1 34 10 31 17 21 20 -16
5z"/>
<path d="M1060 1516 c28 -17 50 -21 35 -7 -6 5 -21 12 -35 15 l-25 7 25 -15z"/>
<path d="M1351 1513 c1 -5 27 -30 58 -58 l56 -49 -55 57 c-55 58 -61 63 -59
50z"/>
<path d="M573 1470 c-34 -20 -47 -38 -15 -21 23 13 58 40 52 41 -3 0 -20 -9
-37 -20z"/>
<path d="M1192 1454 c10 -10 20 -16 22 -13 3 3 -5 11 -17 18 -21 13 -21 12 -5
-5z"/>
<path d="M504 1419 c-19 -22 -19 -22 4 -8 12 8 22 17 22 21 0 12 -6 9 -26 -13z"/>
<path d="M764 1385 c-9 -14 -15 -28 -12 -30 2 -2 12 9 22 25 21 36 13 40 -10
5z"/>
<path d="M1280 1385 c13 -14 26 -25 28 -25 3 0 -5 11 -18 25 -13 14 -26 25
-28 25 -3 0 5 -11 18 -25z"/>
<path d="M259 1383 c-13 -16 -12 -17 4 -4 9 7 17 15 17 17 0 8 -8 3 -21 -13z"/>
<path d="M455 1378 l-20 -21 23 12 c12 6 22 16 22 21 0 13 -2 12 -25 -12z"/>
<path d="M1460 1396 c0 -2 8 -10 18 -17 15 -13 16 -12 3 4 -13 16 -21 21 -21
13z"/>
<path d="M792 1367 c-12 -13 -22 -30 -22 -38 0 -8 10 -2 25 15 38 44 35 63 -3
23z"/>
<path d="M1499 1345 c5 -11 17 -29 26 -40 l16 -20 -10 20 c-5 11 -17 29 -26
40 l-16 20 10 -20z"/>
<path d="M210 1314 c-12 -19 -20 -37 -17 -40 2 -3 14 13 26 36 26 49 20 52 -9
4z"/>
<path d="M414 1328 l-19 -23 23 19 c21 18 27 26 19 26 -2 0 -12 -10 -23 -22z"/>
<path d="M1325 1330 c10 -11 20 -20 23 -20 3 0 -3 9 -13 20 -10 11 -20 20 -23
20 -3 0 3 -9 13 -20z"/>
<path d="M900 1309 c0 -6 -9 -8 -21 -4 -13 4 -43 -4 -84 -25 -75 -37 -107 -79
-101 -131 3 -31 7 -35 47 -43 28 -6 78 -5 139 3 52 6 107 11 122 11 15 0 33 7
42 15 8 8 25 15 38 15 22 1 22 1 4 15 -16 12 -17 18 -8 27 22 22 14 65 -17 87
-16 12 -36 19 -44 15 -8 -3 -17 2 -20 10 -7 19 -97 23 -97 5z m60 -12 c15 4
23 -2 33 -27 13 -30 15 -31 32 -14 17 17 18 17 31 -1 17 -23 17 -35 0 -58 -9
-12 -16 -14 -21 -8 -3 6 -11 11 -16 11 -6 0 -7 -5 -3 -12 5 -8 2 -9 -9 -5 -11
4 -17 1 -17 -7 0 -8 -13 -12 -39 -12 -22 1 -37 -3 -33 -8 3 -5 -9 -6 -27 -3
-18 4 -30 3 -26 -2 3 -6 -19 -7 -52 -4 -32 2 -66 5 -75 4 -9 0 -20 9 -23 20
-9 29 2 36 20 13 14 -18 14 -17 4 8 -11 24 -9 30 12 47 21 18 25 19 34 5 32
-50 34 -51 35 -8 0 69 56 73 84 6 14 -35 15 -36 15 -9 1 15 6 27 12 27 7 0 9
11 5 28 -3 15 -3 22 0 16 3 -7 14 -10 24 -7z m-40 -17 c0 -5 -2 -10 -4 -10 -3
0 -8 5 -11 10 -3 6 -1 10 4 10 6 0 11 -4 11 -10z m77 -146 c-3 -3 -12 -4 -19
-1 -8 3 -5 6 6 6 11 1 17 -2 13 -5z"/>
<path d="M972 1255 c0 -16 2 -22 5 -12 2 9 2 23 0 30 -3 6 -5 -1 -5 -18z"/>
<path d="M375 1274 c-9 -15 -12 -23 -6 -20 11 7 35 46 28 46 -3 0 -12 -12 -22
-26z"/>
<path d="M1381 1250 c14 -31 19 -36 19 -24 0 6 -7 19 -16 30 -14 18 -14 18 -3
-6z"/>
<path d="M170 1239 c-7 -11 -10 -23 -7 -25 2 -2 9 7 15 21 14 30 7 33 -8 4z"/>
<path d="M346 1225 c-9 -26 -7 -32 5 -12 6 10 9 21 6 23 -2 3 -7 -2 -11 -11z"/>
<path d="M1581 1195 c0 -11 4 -27 9 -35 9 -13 10 -13 9 0 0 8 -4 24 -9 35 l-9
20 0 -20z"/>
<path d="M131 1135 c-20 -64 -27 -104 -16 -93 7 7 45 152 40 156 -2 2 -13 -26
-24 -63z"/>
<path d="M1603 1118 c17 -48 29 -192 24 -282 -3 -57 -2 -90 3 -76 21 65 4 339
-23 365 -7 7 -8 5 -4 -7z"/>
<path d="M311 1047 c-18 -7 -47 -26 -62 -42 -40 -39 -41 -106 -1 -152 28 -32
115 -83 143 -83 21 0 49 -32 49 -55 0 -10 -8 -24 -17 -31 -20 -15 -109 -19
-115 -5 -1 5 -18 12 -36 16 -31 6 -33 5 -52 -41 -11 -26 -18 -49 -16 -52 9 -9
141 -42 168 -42 50 0 137 39 163 74 29 38 34 101 11 145 -17 31 -81 77 -123
87 -40 10 -83 42 -83 63 0 42 57 54 125 25 21 -8 42 -13 49 -11 12 5 40 96 31
105 -12 12 -201 11 -234 -1z"/>
<path d="M600 1041 c0 -5 14 -45 30 -88 17 -43 42 -109 56 -148 15 -38 40
-106 58 -150 l31 -80 53 -3 52 -3 20 43 c11 24 36 88 56 143 20 55 51 139 70
187 19 48 34 92 34 98 0 6 -25 10 -58 10 l-58 0 -22 -52 c-11 -29 -30 -82 -42
-118 -11 -36 -26 -77 -33 -92 -12 -29 -27 -37 -27 -15 0 6 -7 25 -15 40 -8 16
-24 59 -35 95 -12 37 -28 84 -37 105 -17 37 -17 37 -75 37 -32 0 -58 -4 -58
-9z"/>
<path d="M1107 1023 c-3 -16 -8 -38 -12 -50 -6 -20 -4 -23 19 -23 l26 0 0
-190 0 -190 101 0 c130 0 181 13 219 57 25 28 30 42 30 83 0 41 -5 55 -31 84
l-30 35 21 28 c33 45 36 92 8 133 -36 54 -57 60 -209 60 l-137 0 -5 -27z m237
-89 c20 -20 20 -29 0 -49 -11 -10 -29 -15 -53 -13 -29 2 -37 8 -39 26 -2 13
-1 30 2 38 7 19 70 18 90 -2z m9 -178 c21 -16 22 -49 2 -66 -9 -7 -34 -13 -58
-14 -41 -1 -42 0 -45 32 -2 19 -1 40 2 48 7 18 75 18 99 0z"/>
<path d="M103 985 c0 -27 2 -38 4 -22 2 15 2 37 0 50 -2 12 -4 0 -4 -28z"/>
<path d="M103 815 c0 -22 2 -30 4 -17 2 12 2 30 0 40 -3 9 -5 -1 -4 -23z"/>
<path d="M116 735 c6 -45 34 -138 40 -132 2 2 -1 19 -7 38 -6 19 -17 57 -25
84 -12 46 -13 46 -8 10z"/>
<path d="M1611 718 c0 -9 -4 -25 -7 -35 -5 -17 -5 -17 6 0 6 10 9 25 7 35 -4
15 -5 15 -6 0z"/>
<path d="M1587 633 c-4 -3 -7 -13 -7 -22 1 -13 3 -13 11 2 11 19 8 33 -4 20z"/>
<path d="M160 583 c0 -5 7 -18 15 -29 13 -18 14 -18 8 4 -5 22 -23 41 -23 25z"/>
<path d="M1378 523 c-153 -165 -153 -166 -197 -158 -29 5 -46 2 -65 -10 -15
-10 -37 -15 -51 -13 -13 3 -22 2 -20 -3 7 -11 -80 -23 -96 -13 -7 4 -10 3 -5
-4 3 -6 -2 -13 -11 -15 -34 -8 -115 -7 -133 3 -13 7 -19 6 -23 -4 -3 -8 5 -18
20 -25 14 -7 23 -15 19 -18 -9 -9 -56 18 -56 33 0 13 -29 24 -82 31 -30 4 -38
1 -38 -12 0 -11 -6 -15 -17 -11 -10 3 -34 2 -53 -2 l-34 -8 42 -22 c23 -12 49
-22 56 -22 8 0 16 -7 20 -15 3 -8 17 -15 31 -15 14 0 25 -4 25 -8 0 -4 39 -9
88 -10 48 -2 94 -5 104 -8 9 -3 19 0 22 5 4 6 13 8 21 4 11 -4 13 -1 9 11 -3
9 -1 16 5 16 6 0 11 -4 11 -9 0 -10 33 -9 60 1 39 16 70 18 71 6 0 -7 5 -3 11
10 6 12 16 21 22 19 6 -2 23 2 39 10 21 11 27 11 27 1 1 -7 8 1 17 17 8 17 23
37 32 46 9 9 34 40 56 69 67 88 107 134 126 148 11 7 19 17 19 23 0 21 -22 6
-72 -48z m-203 -183 c-3 -5 -21 -10 -38 -10 -24 0 -28 3 -17 10 20 13 63 13
55 0z m33 -30 c-13 -20 -28 -27 -28 -12 0 10 22 32 32 32 5 0 3 -9 -4 -20z
m-500 -10 c17 -11 32 -22 32 -26 0 -4 -60 28 -79 43 -16 12 20 -1 47 -17z
m336 5 c-4 -8 -9 -15 -13 -15 -4 0 -8 7 -8 15 0 8 6 15 13 15 8 0 11 -6 8 -15z
m43 9 c-3 -3 -12 -4 -19 -1 -8 3 -5 6 6 6 11 1 17 -2 13 -5z m-463 -29 c8 -9
18 -15 21 -15 3 1 11 -1 18 -3 6 -3 2 -6 -11 -6 -27 -1 -62 15 -62 29 0 15 17
12 34 -5z m351 5 c18 -8 17 -9 -7 -9 -15 -1 -30 4 -33 9 -7 12 12 12 40 0z
m145 -10 c-12 -12 -33 -25 -47 -31 -23 -8 -24 -8 -13 6 7 8 18 15 25 15 7 0
18 7 25 15 7 8 16 15 21 15 5 0 0 -9 -11 -20z m-229 -4 l34 -15 -32 2 c-17 1
-29 5 -27 9 2 3 -2 9 -8 11 -7 3 -10 6 -7 6 4 1 22 -6 40 -13z m123 -30 c-10
-8 -21 -12 -23 -10 -3 2 4 11 15 18 10 8 21 12 23 10 3 -2 -4 -11 -15 -18z
m-274 -6 c-8 -5 -28 -9 -45 -9 -26 0 -27 2 -10 9 11 5 31 9 45 9 20 1 22 -1
10 -9z m171 -10 c-13 -11 -31 -20 -40 -20 -9 0 0 8 19 19 46 24 50 24 21 1z
m-87 -5 c-10 -8 -30 -14 -44 -14 -20 1 -21 2 -5 6 11 3 24 9 30 14 5 5 16 9
24 9 11 0 10 -4 -5 -15z"/>
<path d="M1545 539 c-4 -6 -5 -12 -2 -15 2 -3 7 2 10 11 7 17 1 20 -8 4z"/>
<path d="M190 521 c0 -5 5 -13 10 -16 6 -3 10 -2 10 4 0 5 -4 13 -10 16 -5 3
-10 2 -10 -4z"/>
<path d="M1496 453 c-20 -32 -27 -46 -14 -31 26 30 62 88 55 88 -2 0 -21 -26
-41 -57z"/>
<path d="M220 472 c6 -13 14 -21 18 -18 3 4 -2 14 -12 24 -18 16 -18 16 -6 -6z"/>
<path d="M250 433 c0 -6 8 -17 18 -24 16 -13 16 -13 2 6 -8 11 -16 22 -17 24
-2 2 -3 0 -3 -6z"/>
<path d="M350 320 c36 -36 80 -73 98 -83 45 -25 40 -14 -5 14 -21 13 -65 48
-99 79 -58 53 -58 53 6 -10z"/>
<path d="M1430 367 c-31 -28 -65 -67 -59 -67 3 0 25 20 49 45 46 47 52 60 10
22z"/>
<path d="M1280 239 c-22 -18 -22 -19 -3 -10 12 6 25 16 28 21 9 15 3 12 -25
-11z"/>
<path d="M497 209 c7 -7 15 -10 18 -7 3 3 -2 9 -12 12 -14 6 -15 5 -6 -5z"/>
<path d="M1200 195 c-25 -13 -41 -24 -37 -25 11 0 87 39 87 45 0 7 0 7 -50
-20z"/>
<path d="M546 181 c5 -5 20 -12 34 -15 l25 -7 -25 15 c-28 17 -50 21 -34 7z"/>
<path d="M620 152 c8 -5 50 -17 93 -27 89 -20 287 -18 322 4 18 11 17 12 -10
7 -119 -22 -259 -15 -400 20 -15 4 -16 3 -5 -4z"/>
<path d="M1095 150 c-16 -7 -17 -9 -3 -9 9 -1 20 4 23 9 7 11 7 11 -20 0z"/>
</g>
</svg>
